<?xml version="1.0" encoding="utf-8"?>
<!-- Generator: Adobe Illustrator 18.1.0, SVG Export Plug-In . SVG Version: 6.00 Build 0)  -->
<!DOCTYPE svg PUBLIC "-//W3C//DTD SVG 1.1//EN" "http://www.w3.org/Graphics/SVG/1.1/DTD/svg11.dtd">
<svg version="1.1" id="Layer_1" xmlns="http://www.w3.org/2000/svg" xmlns:xlink="http://www.w3.org/1999/xlink" x="0px" y="0px"
	 viewBox="-233 356.9 128 128" enable-background="new -233 356.9 128 128" xml:space="preserve">
<g>
	<g>
		<path fill-rule="evenodd" clip-rule="evenodd" d="M-113.4,455.6h-111.3c-4.4,0-8,3.6-8,8v0c0,4.4,3.6,8,8,8h111.3c4.4,0,8-3.6,8-8
			v0C-105.3,459.2-108.9,455.6-113.4,455.6z M-113.4,370.1h-111.3c-4.4,0-8,3.6-8,8v0c0,4.4,3.6,8,8,8h111.3c4.4,0,8-3.6,8-8v0
			C-105.3,373.6-108.9,370.1-113.4,370.1z M-113.4,412.9h-111.3c-4.4,0-8,3.6-8,8v0c0,4.4,3.6,8,8,8h111.3c4.4,0,8-3.6,8-8v0
			C-105.3,416.5-108.9,412.9-113.4,412.9z"/>
	</g>
</g>
</svg>
