<?xml version="1.0" encoding="utf-8"?>
<!-- Generator: Adobe Illustrator 18.1.0, SVG Export Plug-In . SVG Version: 6.00 Build 0)  -->
<!DOCTYPE svg PUBLIC "-//W3C//DTD SVG 1.1//EN" "http://www.w3.org/Graphics/SVG/1.1/DTD/svg11.dtd">
<svg version="1.1" id="Layer_1" xmlns="http://www.w3.org/2000/svg" xmlns:xlink="http://www.w3.org/1999/xlink" x="0px" y="0px"
	 width="128px" height="128px" viewBox="0 0 128 128" enable-background="new 0 0 128 128" xml:space="preserve">
<g>
	<path d="M68.8,58.2V58c0,0.1-0.1,0.1-0.1,0.2H68.8z"/>
	<path d="M42.3,102h-17V50.7h17V102z M33.8,43.7h-0.1c-5.7,0-9.4-3.9-9.4-8.9c0-5,3.8-8.9,9.6-8.9c5.8,0,9.4,3.8,9.5,8.9
		C43.4,39.8,39.7,43.7,33.8,43.7z M103.7,102h-17V74.6c0-6.9-2.5-11.6-8.6-11.6c-4.7,0-7.5,3.2-8.7,6.2c-0.5,1.1-0.6,2.6-0.6,4.2
		V102h-17c0,0,0.2-46.4,0-51.3h17V58c2.3-3.5,6.3-8.5,15.4-8.5c11.2,0,19.6,7.3,19.6,23.1V102z"/>
</g>
</svg>
