<?xml version="1.0" encoding="utf-8"?>
<!-- Generator: Adobe Illustrator 18.1.1, SVG Export Plug-In . SVG Version: 6.00 Build 0)  -->
<svg version="1.1" id="Layer_1" xmlns="http://www.w3.org/2000/svg" xmlns:xlink="http://www.w3.org/1999/xlink" x="0px" y="0px"
	 viewBox="0 0 128 128" enable-background="new 0 0 128 128" xml:space="preserve">
<path d="M64,0C28.7,0,0,28.6,0,64c0,35.3,28.7,64,64,64c35.3,0,64-28.6,64-64C128,28.6,99.3,0,64,0z M79.1,65.2H68.9
	c0,16.3,0,36.4,0,36.4H53.7c0,0,0-19.9,0-36.4h-7.2V52.4h7.2v-8.3c0-6,2.8-15.3,15.3-15.3l11.2,0v12.5c0,0-6.8,0-8.1,0
	c-1.3,0-3.2,0.7-3.2,3.5v7.6h11.5L79.1,65.2z"/>
</svg>
