<?xml version="1.0" encoding="utf-8"?>
<!-- Generator: Adobe Illustrator 18.1.0, SVG Export Plug-In . SVG Version: 6.00 Build 0)  -->
<!DOCTYPE svg PUBLIC "-//W3C//DTD SVG 1.1//EN" "http://www.w3.org/Graphics/SVG/1.1/DTD/svg11.dtd">
<svg version="1.1" id="Layer_1" xmlns="http://www.w3.org/2000/svg" xmlns:xlink="http://www.w3.org/1999/xlink" x="0px" y="0px"
	 width="128px" height="128px" viewBox="0 0 128 128" enable-background="new 0 0 128 128" xml:space="preserve">
<g>
	<path d="M81.6,63c0,9.7-7.9,17.6-17.6,17.6S46.4,72.7,46.4,63c0-2.2,0.4-4.3,1.2-6.2H26.1V83c0,10.5,8.5,19,19,19H83
		c10.5,0,19-8.5,19-19V56.8H80.4C81.1,58.8,81.6,60.8,81.6,63z"/>
	<circle cx="64" cy="63" r="10.5"/>
	<path d="M83,26.1H46v19.8h-4.1V26.3c-1.4,0.2-2.8,0.6-4.1,1.2v18.3h-4.1V29.9c-4.6,3.5-7.5,8.9-7.5,15.1v5.6h25.6
		c3.2-3.2,7.6-5.1,12.4-5.1s9.2,2,12.4,5.1h25.6V45C101.9,34.6,93.5,26.1,83,26.1z M91.5,44c0,1.2-1,2.1-2.1,2.1h-6.4
		c-1.2,0-2.1-1-2.1-2.1v-6.4c0-1.2,1-2.1,2.1-2.1h6.4c1.2,0,2.1,1,2.1,2.1V44z"/>
</g>
</svg>
