<?xml version="1.0" encoding="utf-8"?>
<!-- Generator: Adobe Illustrator 18.1.1, SVG Export Plug-In . SVG Version: 6.00 Build 0)  -->
<svg version="1.1" id="Layer_1" xmlns="http://www.w3.org/2000/svg" xmlns:xlink="http://www.w3.org/1999/xlink" x="0px" y="0px"
	 viewBox="0 0 128 128" enable-background="new 0 0 128 128" xml:space="preserve">
<path d="M124,108.8L93.7,83c-3.1-2.8-6.5-4.1-9.2-4C91.7,70.6,96,59.7,96,47.9c0-26.5-21.5-48-48-48S0,21.3,0,47.9
	s21.5,48,48,48c11.9,0,22.8-4.3,31.1-11.5c-0.1,2.7,1.2,6.1,4,9.2l25.8,30.3c4.4,4.9,11.6,5.3,16,0.9
	C129.4,120.4,128.9,113.2,124,108.8z M48,79.9c-17.7,0-32-14.3-32-32s14.3-32,32-32s32,14.3,32,32S65.7,79.9,48,79.9z"/>
</svg>
