<?xml version="1.0" encoding="utf-8"?>
<!-- Generator: Adobe Illustrator 18.1.1, SVG Export Plug-In . SVG Version: 6.00 Build 0)  -->
<svg version="1.1" id="Layer_1" xmlns="http://www.w3.org/2000/svg" xmlns:xlink="http://www.w3.org/1999/xlink" x="0px" y="0px"
	 viewBox="0 0 128 128" enable-background="new 0 0 128 128" xml:space="preserve">
<g>
	<path d="M66,52.2c0-6.1-3.7-15.6-10.9-15.6c-2.2,0-4.7,0.9-6,2.6c-1.5,1.8-1.9,4.3-1.9,6.5c0,5.7,3.4,15.1,10.8,15.1
		c2.2,0,4.5-1.2,5.9-2.6C65.8,56.2,66,53.7,66,52.2z"/>
	<path d="M61.3,74.3c-0.7-0.1-1.1-0.1-2-0.1c-0.8,0-5.4,0.2-9.1,1.4c-1.9,0.7-7.4,2.7-7.4,8.7c0,6,5.9,10.4,15.2,10.4
		c8.3,0,12.7-3.9,12.7-9.2C70.7,81.2,67.9,78.9,61.3,74.3z"/>
	<path d="M64,0C28.7,0,0,28.7,0,64c0,35.4,28.7,64,64,64c35.3,0,64-28.6,64-64C128,28.7,99.3,0,64,0z M53.6,98.3
		c-12.5,0-18.3-5.9-18.3-12.2c0-3.1,1.5-7.4,6.6-10.4c5.3-3.2,12.6-3.6,16.5-3.9c-1.2-1.5-2.6-3.1-2.6-5.8c0-1.4,0.4-2.3,0.9-3.3
		c-1,0.1-1.9,0.2-2.8,0.2c-9.1,0-14.3-6.7-14.3-13.3c0-3.9,1.2-8.5,4.9-11.7c4.9-4,11.2-4.5,15.8-4.5l18,0l-5.6,3.4h-5.1
		c2,1.6,5.9,4.7,5.9,11.2c0,6.3-3.6,9.3-7.2,12.1c-1.1,1.1-2.4,2.3-2.4,4.2c0,1.9,1.3,2.9,2.2,3.7l3.1,2.4c3.8,3.1,7.2,6,7.2,11.9
		C76.5,90.2,68.4,98.3,53.6,98.3z M99.8,66.5h-8.5V75h-4.4v-8.5h-8.5v-4.2h8.5v-8.5h4.4v8.5h8.5V66.5z"/>
</g>
</svg>
