<?xml version="1.0" encoding="utf-8"?>
<!-- Generator: Adobe Illustrator 18.1.0, SVG Export Plug-In . SVG Version: 6.00 Build 0)  -->
<!DOCTYPE svg PUBLIC "-//W3C//DTD SVG 1.1//EN" "http://www.w3.org/Graphics/SVG/1.1/DTD/svg11.dtd">
<svg version="1.1" id="Layer_1" xmlns="http://www.w3.org/2000/svg" xmlns:xlink="http://www.w3.org/1999/xlink" x="0px" y="0px"
	 width="128px" height="128px" viewBox="0 0 128 128" enable-background="new 0 0 128 128" xml:space="preserve">
<g>
	<path d="M88.6,62.2H39.3c-7.8,0-14.2,6.4-14.2,14.2v11.4c0,7.8,6.3,14.2,14.2,14.2h49.3c7.8,0,14.2-6.4,14.2-14.2V76.4
		C102.8,68.6,96.5,62.2,88.6,62.2z M49.7,71.1h-4.6v22.8h-4.4V71.1h-4.6v-3.9h13.6V71.1z M62.7,93.9h-3.9v-2.2
		c-0.7,0.8-1.5,1.4-2.3,1.8c-0.8,0.4-1.5,0.6-2.3,0.6c-0.9,0-1.6-0.3-2.1-0.9c-0.5-0.6-0.7-1.5-0.7-2.6V74.2h3.9v15.1
		c0,0.5,0.1,0.8,0.2,1c0.2,0.2,0.4,0.3,0.8,0.3c0.3,0,0.7-0.1,1.1-0.4c0.4-0.3,0.8-0.6,1.2-1.1V74.2h3.9V93.9z M76.9,89.8
		c0,1.4-0.3,2.5-0.9,3.2c-0.6,0.7-1.5,1.1-2.7,1.1c-0.8,0-1.5-0.1-2.1-0.4c-0.6-0.3-1.2-0.7-1.7-1.3v1.5h-4V67.2h4v8.6
		c0.5-0.6,1.1-1.1,1.7-1.4c0.6-0.3,1.2-0.5,1.8-0.5c1.2,0,2.2,0.4,2.8,1.3c0.7,0.8,1,2.1,1,3.7V89.8z M90.5,84.5H83v3.7
		c0,1,0.1,1.8,0.4,2.2c0.3,0.4,0.7,0.6,1.3,0.6c0.7,0,1.1-0.2,1.4-0.5c0.3-0.3,0.4-1.1,0.4-2.2v-0.9h4v1c0,2-0.5,3.5-1.5,4.6
		c-1,1-2.5,1.5-4.4,1.5c-1.8,0-3.1-0.5-4.2-1.6c-1-1.1-1.5-2.6-1.5-4.5v-8.8c0-1.7,0.6-3.1,1.7-4.2c1.1-1.1,2.5-1.6,4.3-1.6
		c1.8,0,3.2,0.5,4.1,1.5c1,1,1.5,2.4,1.5,4.3V84.5z"/>
	<path d="M84.8,77.1c-0.6,0-1.1,0.2-1.3,0.5C83.2,78,83,78.6,83,79.5v2h3.5v-2c0-0.8-0.1-1.4-0.4-1.8C85.8,77.3,85.4,77.1,84.8,77.1
		z"/>
	<path d="M71.2,77.1c-0.3,0-0.6,0.1-0.8,0.2c-0.3,0.1-0.5,0.3-0.8,0.6v12.3c0.3,0.3,0.6,0.6,0.9,0.7c0.3,0.1,0.6,0.2,0.9,0.2
		c0.5,0,0.8-0.1,1.1-0.4c0.2-0.3,0.3-0.7,0.3-1.4V79.1c0-0.7-0.1-1.2-0.4-1.5C72.2,77.2,71.8,77.1,71.2,77.1z"/>
	<polygon points="45.8,55.4 50.8,55.4 50.8,43.2 56.6,26 51.5,26 48.4,37.7 48.1,37.7 44.9,26 39.9,26 45.8,43.7 	"/>
	<path d="M63.3,55.9c2,0,3.6-0.5,4.7-1.6c1.1-1.1,1.7-2.5,1.7-4.4V38.8c0-1.6-0.6-3-1.7-4c-1.2-1-2.7-1.6-4.5-1.6
		c-2,0-3.6,0.5-4.8,1.5c-1.2,1-1.8,2.3-1.8,4v11.2c0,1.8,0.6,3.3,1.7,4.4C59.8,55.4,61.4,55.9,63.3,55.9z M61.5,38.5
		c0-0.5,0.2-0.9,0.5-1.2c0.3-0.3,0.8-0.4,1.3-0.4c0.6,0,1.1,0.1,1.4,0.4c0.4,0.3,0.5,0.7,0.5,1.2v11.8c0,0.6-0.2,1-0.5,1.4
		c-0.4,0.3-0.8,0.5-1.4,0.5c-0.6,0-1-0.2-1.3-0.5c-0.3-0.3-0.5-0.8-0.5-1.4V38.5z"/>
	<path d="M76.5,55.7c0.8,0,1.7-0.2,2.6-0.7c0.9-0.5,1.7-1.1,2.5-2v2.4H86V33.7h-4.4v16.4c-0.4,0.5-0.9,0.9-1.4,1.2
		c-0.5,0.3-0.9,0.5-1.2,0.5c-0.4,0-0.7-0.1-0.9-0.3c-0.2-0.2-0.3-0.6-0.3-1.1V33.7h-4.4v18.1c0,1.3,0.3,2.3,0.8,2.9
		C74.7,55.4,75.4,55.7,76.5,55.7z"/>
</g>
</svg>
