<?xml version="1.0" encoding="utf-8"?>
<!-- Generator: Adobe Illustrator 18.1.0, SVG Export Plug-In . SVG Version: 6.00 Build 0)  -->
<!DOCTYPE svg PUBLIC "-//W3C//DTD SVG 1.1//EN" "http://www.w3.org/Graphics/SVG/1.1/DTD/svg11.dtd">
<svg version="1.1" id="Layer_1" xmlns="http://www.w3.org/2000/svg" xmlns:xlink="http://www.w3.org/1999/xlink" x="0px" y="0px"
	 width="128px" height="128px" viewBox="0 0 128 128" enable-background="new 0 0 128 128" xml:space="preserve">
<path d="M69.9,80.9c-4.7,0-9.1-2.5-10.7-5.4c0,0-2.5,10-3.1,12c-1.9,6.9-7.4,13.7-7.9,14.3c-0.3,0.4-1,0.3-1-0.3
	c-0.1-0.9-1.5-9.5,0.1-16.6c0.8-3.5,5.6-23.8,5.6-23.8s-1.4-2.8-1.4-6.9c0-6.5,3.7-11.3,8.4-11.3c4,0,5.9,3,5.9,6.5
	c0,4-2.5,10-3.8,15.5c-1.1,4.6,2.3,8.4,6.9,8.4c8.3,0,13.8-10.6,13.8-23.2c0-9.6-6.4-16.7-18.2-16.7c-13.2,0-21.5,9.9-21.5,20.9
	c0,3.8,1.1,6.5,2.9,8.6c0.8,1,0.9,1.3,0.6,2.4c-0.2,0.8-0.7,2.7-0.9,3.5c-0.3,1.1-1.2,1.5-2.2,1.1c-6.1-2.5-8.9-9.2-8.9-16.7
	C34.6,40.9,45.1,26,65.8,26c16.7,0,27.6,12,27.6,25C93.4,68.1,83.9,80.9,69.9,80.9z"/>
</svg>
