<?xml version="1.0" encoding="utf-8"?>
<!-- Generator: Adobe Illustrator 18.1.1, SVG Export Plug-In . SVG Version: 6.00 Build 0)  -->
<svg version="1.1" id="Layer_1" xmlns="http://www.w3.org/2000/svg" xmlns:xlink="http://www.w3.org/1999/xlink" x="0px" y="0px"
	 viewBox="0 0 128 128" enable-background="new 0 0 128 128" xml:space="preserve">
<path d="M64,0C28.7,0,0,28.7,0,64c0,35.4,28.7,64,64,64s64-28.6,64-64C128,28.7,99.3,0,64,0z M89.4,51c0,0.6,0,1.1,0,1.7
	C89.5,70,76.3,90,52.1,90c-7.4,0-14.3-2.2-20.1-5.9c1,0.1,2.1,0.2,3.1,0.2c6.2,0,11.8-2.1,16.3-5.6c-5.7-0.1-10.6-3.9-12.3-9.1
	c0.8,0.1,1.6,0.2,2.5,0.2c1.2,0,2.4-0.2,3.5-0.5c-6-1.2-10.5-6.5-10.5-12.9v-0.2c1.8,1,3.8,1.6,5.9,1.6c-3.5-2.4-5.8-6.4-5.8-10.9
	c0-2.4,0.6-4.7,1.8-6.6c6.5,7.9,16.2,13.2,27.1,13.7c-0.2-1-0.3-2-0.3-3c0-7.3,5.9-13.1,13.1-13.1c3.8,0,7.2,1.6,9.6,4.1
	c3-0.6,5.8-1.7,8.3-3.2c-1,3.1-3.1,5.6-5.8,7.3c2.7-0.3,5.2-1,7.5-2.1C94.2,46.8,92,49.1,89.4,51z"/>
</svg>
