<?xml version="1.0" encoding="utf-8"?>
<!-- Generator: Adobe Illustrator 18.1.0, SVG Export Plug-In . SVG Version: 6.00 Build 0)  -->
<!DOCTYPE svg PUBLIC "-//W3C//DTD SVG 1.1//EN" "http://www.w3.org/Graphics/SVG/1.1/DTD/svg11.dtd">
<svg version="1.1" id="Layer_1" xmlns="http://www.w3.org/2000/svg" xmlns:xlink="http://www.w3.org/1999/xlink" x="0px" y="0px"
	 width="128px" height="128px" viewBox="0 0 128 128" enable-background="new 0 0 128 128" xml:space="preserve">
<g>
	<path d="M108,40c-5.9,0-11.1-2.6-14.8-6.7L39.8,62.1c0.1,0.6,0.2,1.2,0.2,1.9c0,0.6-0.1,1.2-0.2,1.8l53.5,28.8
		c3.7-4,8.9-6.6,14.7-6.6c11,0,20,9,20,20s-9,20-20,20s-20-9-20-20c0-0.3,0.1-0.5,0.1-0.8l-54-29.1C30.5,81.8,25.5,84,20,84
		C9,84,0,75,0,64s9-20,20-20c5.5,0,10.4,2.2,14,5.8l54-29.1c0-0.2-0.1-0.4-0.1-0.7c0-11,9-20,20-20s20,9,20,20C128,31,119,40,108,40
		z"/>
</g>
</svg>
